<?xml version="1.0" encoding="UTF-8"?>
<svg id="Layer_2" data-name="Layer 2" xmlns="http://www.w3.org/2000/svg" viewBox="0 0 238.85 333.24">
  <defs>
    <style>
      .cls-1 {
        fill: #fdce21;
      }

      .cls-2 {
        fill: #fff;
      }

      .cls-3 {
        fill: #fe5b39;
      }

      .cls-4 {
        fill: #62ca46;
      }
    </style>
  </defs>
  <g id="Layer_1-2" data-name="Layer 1">
    <path class="cls-3" d="M237.7,117.87c-3.67,14.42-31.59,48.06-42.96,58.54-31.3,28.82-74.35,40.89-105.07,67.93-7.4,6.51-14.23,13.91-18.97,22.53C37.03,218.46-6.65,170.06.85,105.52,11.76,11.58,126.25-33.71,198.17,28.91c20.31,17.69,46.51,61.57,39.54,88.96Z"/>
    <path class="cls-4" d="M194.7,235.87c-39.22,10.48-76.93,33.49-98,69-9.23-12.54-17.17-25.31-26-38,4.75-8.62,11.58-16.02,18.97-22.53,30.72-27.04,73.77-39.12,105.07-67.93,11.38-10.48,39.29-44.12,42.96-58.54,6.09,43.86-20.6,82.96-43,118Z"/>
    <path class="cls-1" d="M194.7,235.87c-20.9,32.7-44.92,63.57-67.06,95.44-13.14,9.32-24.39-17.54-30.94-26.44,21.07-35.51,58.78-58.52,98-69Z"/>
    <path class="cls-2" d="M132.45,35.94l1.62,15.8c9.3,3.31,17.72,6.11,25.76,12.08,3.04,2.25,9.98,6.72,8.17,10.75-.74,1.65-15.6,14.64-16.96,14.64-11.59-8.81-22.92-16.29-38.4-13.16-14.56,2.94-14.89,18.3-.62,24.63,18.72,8.31,49.86,7.48,57.15,31.47,7.65,25.15-9.52,48.04-34.44,52.13-.97,3.42-.29,14.14-2.53,15.89-3.67,2.88-15.06-1.45-20.01-.09-4.18-.76-2.35-12.24-3.91-16-8.76-2.11-16.76-3.68-24.77-8.09-3.25-1.79-15.37-10.07-15.68-13.3-.38-3.86,14.04-14.44,17.53-17.43,7.31,3.6,12.64,9.08,20.84,12.02,8.64,3.1,28.02,5.97,33.84-3.05,12.51-19.39-32.07-24.72-42.8-28.82-40.37-15.38-29-67.08,10.25-73.93,2.45-3.8-.35-13.47,2.62-15.8,1.99-1.56,21.26-1.39,22.33.27Z"/>
  </g>
</svg>